# xmcd
#
# Track frame offsets:
#	150
#	18961
#	36374
#	64842
#	80800
#	102068
#	130508
#	149963
#	159133
#	175398
#	197226
#	233524
#	249298
#
# Disc length: 3655 seconds
# Revision: 0
# Processed by: cddbd v1.5.2PL0 Copyright (c) Steve Scherf et al.
# Submitted via: dBpowerAMP V12.0
#
DISCID=aa0e450d
DTITLE=Troy Redfern - Backdoor Hoodoo
DYEAR=2015
DGENRE=Blues
TTITLE0=It Stacks
TTITLE1=The Other Side
TTITLE2=Salvation
TTITLE3=Wildfire
TTITLE4=What Goes Around
TTITLE5=War Cry
TTITLE6=Backdoor Hoodoo 
TTITLE7=Lamb Of Zion
TTITLE8=Back Home
TTITLE9=Running With Ghosts
TTITLE10=Survive
TTITLE11=Cold Day In Hell
TTITLE12=This Raging Heart
EXTD=
EXTT0=
EXTT1=
EXTT2=
EXTT3=
EXTT4=
EXTT5=
EXTT6=
EXTT7=
EXTT8=
EXTT9=
EXTT10=
EXTT11=
EXTT12=
PLAYORDER=
